<svg id="Capa_1" data-name="Capa 1" xmlns="http://www.w3.org/2000/svg" viewBox="0 0 100 100"><defs><style>.cls-1{fill:#fff;}.cls-2{fill:#7ea305;}</style></defs><title>Iconos</title><circle class="cls-1" cx="50" cy="50" r="50"/><path class="cls-2" d="M50,0a50,50,0,1,0,50,50A50,50,0,0,0,50,0ZM85.52,44.13H81.3a.64.64,0,0,0-.64.64V74.16A3.88,3.88,0,0,1,76.78,78H64.86A3.88,3.88,0,0,1,61,74.16V62.39a3.88,3.88,0,0,0-3.88-3.88H42.36a3.88,3.88,0,0,0-3.88,3.88V74.16A3.88,3.88,0,0,1,34.59,78H23.28a3.88,3.88,0,0,1-3.88-3.88V44.78a.64.64,0,0,0-.64-.64H15A.64.64,0,0,1,14.63,43l34-25.79a3.25,3.25,0,0,1,3.22,0L85.9,43A.64.64,0,0,1,85.52,44.13Z"/></svg>