<svg id="Capa_1" data-name="Capa 1" xmlns="http://www.w3.org/2000/svg" viewBox="0 0 128 128"><defs><style>.cls-1{fill:#78add1;}</style></defs><title>info</title><path class="cls-1" d="M109.26,18.75a64,64,0,1,0,0,90.51A64,64,0,0,0,109.26,18.75ZM55.42,25.27a9.4,9.4,0,0,1,5-5A8.87,8.87,0,0,1,64,19.51a9.3,9.3,0,0,1,3.72.75,9.88,9.88,0,0,1,3,2,9.67,9.67,0,0,1,2.07,3A9,9,0,0,1,73.63,29a8.45,8.45,0,0,1-.78,3.6,9.79,9.79,0,0,1-5.1,4.95,9.3,9.3,0,0,1-3.72.75,9,9,0,0,1-3.63-.75,9.61,9.61,0,0,1-3-2,9.72,9.72,0,0,1-2-2.94,8.74,8.74,0,0,1-.75-3.6A9.31,9.31,0,0,1,55.42,25.27ZM80.5,108.49h-33v-7.05a3.46,3.46,0,0,1,3-3.75l.75-.14L53,97.22l3.55-.63V58.83L53,58.2l-1.79-.32-.75-.14a3.46,3.46,0,0,1-3-3.75V46.93H71.41V96.59l3.55.63,1.79.32.75.14a3.46,3.46,0,0,1,3,3.75Z"/></svg>